<?xml version="1.0" encoding="utf-8"?>
<!-- Generator: Adobe Illustrator 16.0.0, SVG Export Plug-In . SVG Version: 6.00 Build 0)  -->
<!DOCTYPE svg PUBLIC "-//W3C//DTD SVG 1.1//EN" "http://www.w3.org/Graphics/SVG/1.1/DTD/svg11.dtd">
<svg version="1.1" id="Layer_1" xmlns="http://www.w3.org/2000/svg" xmlns:xlink="http://www.w3.org/1999/xlink" x="0px" y="0px"
	 width="512px" height="512px" viewBox="0 0 512 512" enable-background="new 0 0 512 512" xml:space="preserve">
<path d="M512,384c0,21-12.625,39.938-32,48c0,26.5-21.5,48-48,48s-48-21.5-48-48v-96c0-20.875,13.406-38.438,32-45.063V224
	c0-88.375-71.625-160-160-160c-88.359,0-160,71.625-160,160v66.938c18.594,6.625,32,24.188,32,45.063v96c0,26.5-21.5,48-48,48
	s-48-21.5-48-48c-19.375-8.063-32-27-32-48s12.625-39.938,32-48c0-20.875,13.406-38.438,32-45.063V224c0-106.031,85.969-192,192-192
	s192,85.969,192,192v66.938c18.594,6.625,32,24.188,32,45.063C499.375,344.063,512,363,512,384z"/>
</svg>
